<svg xmlns="http://www.w3.org/2000/svg" viewBox="0 0 100 100">
  <rect width="100" height="100" fill="#000000" rx="20"/>
  <circle cx="50" cy="50" r="46" fill="#050508" stroke="#00E5FF" stroke-width="1.5" opacity="0.9"/>
  <circle cx="50" cy="50" r="38" fill="#0A0D12" stroke="#00E5FF" stroke-width="0.5" opacity="0.4"/>
  <!-- Ghost silhouette simplified -->
  <ellipse cx="50" cy="38" rx="18" ry="20" fill="#00E5FF" opacity="0.85"/>
  <rect x="32" y="54" width="36" height="22" fill="#00E5FF" opacity="0.85"/>
  <path d="M32 76 Q38 68 44 76 Q50 68 56 76 Q62 68 68 76 L68 54 L32 54 Z" fill="#000" opacity="0.3"/>
  <!-- Eyes -->
  <circle cx="43" cy="36" r="4" fill="#000"/>
  <circle cx="57" cy="36" r="4" fill="#000"/>
  <circle cx="44" cy="35" r="1.5" fill="#00E5FF"/>
  <circle cx="58" cy="35" r="1.5" fill="#00E5FF"/>
  <!-- Headphones -->
  <path d="M30 35 Q30 15 50 15 Q70 15 70 35" fill="none" stroke="#00E5FF" stroke-width="3" stroke-linecap="round"/>
  <rect x="26" y="33" width="8" height="12" rx="3" fill="#00E5FF"/>
  <rect x="66" y="33" width="8" height="12" rx="3" fill="#00E5FF"/>
</svg>
